<svg width="97" height="98" viewBox="0 0 97 98" fill="none" xmlns="http://www.w3.org/2000/svg">
<path d="M96.6217 56.9819L83.299 59.8012L92.6842 69.7584L79.1024 68.843L85.4795 80.9881L72.6459 76.4061L75.542 89.8384L64.4084 81.9294L63.6087 95.6528L55.0008 85.0034L50.5647 98L45.1209 85.4002L37.3773 96.706L35.5014 83.0901L25.0246 91.8668L26.8557 78.2447L14.4228 83.8413L19.825 71.2232L6.35806 73.2246L14.9309 62.5464L1.4286 60.8042L12.5361 52.8579L0 47.5013L12.8185 42.8761L2.1782 34.3024L15.7569 33.3414L7.80166 22.1864L21.1336 24.961L16.4533 12.052L28.5496 18.3562L27.4915 4.65076L37.4551 14.0171L40.0976 0.531591L47.1895 12.2655L53.3366 0L57.0309 13.2311L66.2267 3.09541L66.2494 16.8425L77.8119 9.58826L74.1612 22.8317L87.2329 18.997L80.1797 30.7546L93.7911 30.6238L83.8584 40.0236L97 43.6064L84.9245 49.9513L96.6217 56.9819Z" fill="#FFFCA8"/>
</svg>
