<svg width="87" height="88" viewBox="0 0 87 88" fill="none" xmlns="http://www.w3.org/2000/svg">
<path d="M84.7457 47.8491C87.1984 49.3233 86.587 53.0474 83.7874 53.6398C81.3818 54.1489 80.4806 57.1158 82.1672 58.9051C84.1246 60.9818 82.5483 64.4122 79.701 64.2204C77.2523 64.0553 75.5888 66.6739 76.7298 68.8468C78.0535 71.3679 75.6191 74.2528 72.9374 73.2953C70.6292 72.4712 68.3218 74.541 68.8384 76.9368C69.4379 79.7175 66.3169 81.837 63.9979 80.1897C62.001 78.7711 59.2218 80.1309 59.0794 82.5762C58.9138 85.4172 55.336 86.6039 53.547 84.3906C52.0065 82.4848 48.968 83.0292 48.1764 85.3484C47.2555 88.0464 43.4911 88.2006 42.3604 85.5835C41.3882 83.3333 38.3167 83.0343 36.9315 85.0568C35.3228 87.4056 31.6617 86.512 31.2731 83.6917C30.9388 81.2651 28.061 80.1345 26.1833 81.7076C24.0028 83.5342 20.723 81.6716 21.1019 78.8525C21.4283 76.4241 18.9638 74.5465 16.7295 75.5522C14.1341 76.7205 11.4794 74.0375 12.5997 71.421C13.5652 69.1659 11.6996 66.6877 9.27309 67.0483C6.45236 67.4675 4.61252 64.1709 6.3978 61.9472C7.93629 60.0309 6.80457 57.1431 4.3673 56.8286C1.53149 56.4627 0.632343 52.7969 2.95783 51.1332C4.96018 49.7007 4.63722 46.6192 2.37325 45.6518C-0.261697 44.5259 -0.155385 40.7532 2.53994 39.7807C4.85496 38.9454 5.34913 35.8864 3.43275 34.3422C1.2076 32.5492 2.31055 28.9392 5.16107 28.7374C7.61145 28.564 8.90492 25.7445 7.4786 23.7445C5.82363 21.4239 7.84644 18.2363 10.637 18.817C13.0379 19.3167 15.0417 16.9495 14.2059 14.644C13.236 11.9689 16.039 9.44195 18.5624 10.7571C20.7349 11.8893 23.3027 10.1576 23.1141 7.71498C22.8951 4.87873 26.2763 3.20874 28.349 5.15716C30.1339 6.83504 33.071 5.87381 33.5421 3.46982C34.0897 0.675028 37.7959 -0.00392962 39.269 2.43342C40.5373 4.53186 43.6211 4.40904 44.7197 2.217C45.9964 -0.330534 49.7451 0.0446534 50.5115 2.78924C51.1704 5.1491 54.1735 5.86948 55.8199 4.05489C57.7317 1.94768 61.2354 3.33996 61.24 6.18519C61.2441 8.63473 63.9411 10.1537 66.0161 8.85189C68.4259 7.33998 71.4206 9.63545 70.6646 12.378C70.0131 14.7413 72.1985 16.9407 74.5508 16.2506C77.2842 15.4488 79.5513 18.4672 78.0859 20.91C76.8229 23.0154 78.3349 25.7243 80.79 25.7007C83.6452 25.6733 85.0263 29.1867 82.9524 31.1493C81.1658 32.8401 81.8981 35.8523 84.2713 36.4993C87.0337 37.2525 87.4352 41.0049 84.9006 42.3367C82.7201 43.4824 82.6346 46.5802 84.7457 47.8491Z" fill="#81D0DB"/>
</svg>
