<svg width="91" height="91" viewBox="0 0 91 91" fill="none" xmlns="http://www.w3.org/2000/svg">
<path fill-rule="evenodd" clip-rule="evenodd" d="M53 0H39V18.5146L29.5292 1.60637L17.3148 8.44804L27.3852 26.4267L10.1917 16.5L3.19169 28.6244L19.4308 38H0V52H21.4342L3.11883 63.0694L10.3603 75.0511L27.3187 64.8018L17.5 81.8083L29.6244 88.8083L39 72.5692V91H53V72.1567L61.7856 87.8417L74 81L64.4843 64.0117L82 74.1244L89 62L71.6795 52H91V38H71.6651L88.2414 27.9817L81 16L66.6546 24.67L75.1244 10L63 3L53 20.3205V0Z" fill="#F5A375"/>
</svg>
